<svg width="16" height="16" viewBox="0 0 16 16" fill="none" xmlns="http://www.w3.org/2000/svg">
<path fill-rule="evenodd" clip-rule="evenodd" d="M6 1C6 0.447715 5.55228 0 5 0C4.44772 0 4 0.447715 4 1V4H1C0.447715 4 0 4.44772 0 5C0 5.55228 0.447715 6 1 6H4V10H1C0.447715 10 0 10.4477 0 11C0 11.5523 0.447715 12 1 12H4V15C4 15.5523 4.44772 16 5 16C5.55228 16 6 15.5523 6 15V12H10V15C10 15.5523 10.4477 16 11 16C11.5523 16 12 15.5523 12 15V12H15C15.5523 12 16 11.5523 16 11C16 10.4477 15.5523 10 15 10H12V6H15C15.5523 6 16 5.55229 16 5C16 4.44772 15.5523 4 15 4H12V1C12 0.447715 11.5523 0 11 0C10.4477 0 10 0.447715 10 1V4H6V1ZM6 6V10H10V6H6Z" fill="#A5B7F3"/>
</svg>
